<svg width="100" height="100" viewBox="0 0 100 100" xmlns="http://www.w3.org/2000/svg">
  <g fill="none" fill-rule="evenodd">
    <path d="M100 100H0V0h100v100zM2 2h96v96H2V2z" fill="#FFF" fill-opacity=".1"/>
    <path d="M50 50l10-10M50 50l-10 10M50 50l10 10M50 50L40 40" stroke="#FFF" stroke-width="2" stroke-opacity=".2" stroke-linecap="square"/>
    <circle cx="50" cy="50" r="4" fill="#FFF" fill-opacity=".2"/>
    <circle cx="40" cy="40" r="2" fill="#FFF" fill-opacity=".3"/>
    <circle cx="60" cy="60" r="2" fill="#FFF" fill-opacity=".3"/>
    <circle cx="40" cy="60" r="2" fill="#FFF" fill-opacity=".3"/>
    <circle cx="60" cy="40" r="2" fill="#FFF" fill-opacity=".3"/>
    <path d="M10 10h20v20H10zM70 70h20v20H70zM10 70h20v20H10zM70 10h20v20H70z" fill="#FFF" fill-opacity=".1"/>
  </g>
</svg>